Coordinates
version=1
nRows=16
nColumns=63
inDegrees=yes

Units are S.I. units (second, meters, Newtons, ...)
If the header above contains a line with 'inDegrees', this indicates whether rotational values are in degrees (yes) or radians (no).

endheader
time	pelvis_tilt	pelvis_list	pelvis_rotation	pelvis_tx	pelvis_ty	pelvis_tz	hip_flexion_r	hip_adduction_r	hip_rotation_r	knee_angle_r	knee_angle_r_beta	ankle_angle_r	subtalar_angle_r	mtp_angle_r	hip_flexion_l	hip_adduction_l	hip_rotation_l	knee_angle_l	knee_angle_l_beta	ankle_angle_l	subtalar_angle_l	mtp_angle_l	L5_S1_Flex_Ext	L5_S1_Lat_Bending	L5_S1_axial_rotation	L4_L5_Flex_Ext	L4_L5_Lat_Bending	L4_L5_axial_rotation	L3_L4_Flex_Ext	L3_L4_Lat_Bending	L3_L4_axial_rotation	L2_L3_Flex_Ext	L2_L3_Lat_Bending	L2_L3_axial_rotation	L1_L2_Flex_Ext	L1_L2_Lat_Bending	L1_L2_axial_rotation	L1_T12_Flex_Ext	L1_T12_Lat_Bending	L1_T12_axial_rotation	Abs_r3	Abs_r2	Abs_r1	Abs_t1	Abs_t2	neck_flexion	neck_bending	neck_rotation	arm_flex_r	arm_add_r	arm_rot_r	elbow_flex_r	pro_sup_r	wrist_flex_r	wrist_dev_r	arm_flex_l	arm_add_l	arm_rot_l	elbow_flex_l	pro_sup_l	wrist_flex_l	wrist_dev_l
0.000000	-2.809747	-4.388167	89.402918	0.297774	0.790961	0.771755	4.172102	-0.848533	-1.291376	0.281784	0.004918	24.032920	1.691420	0.000000	6.039247	1.468986	12.653241	2.563299	0.044738	22.561813	-13.503080	0.000000	0.252860	-0.157625	1.412719	0.469586	-0.209641	1.501014	0.415424	-0.383249	1.501014	0.288994	-0.383249	1.236129	0.234806	-0.321428	1.147834	0.144484	-0.244161	1.059539	1.806154	-1.783082	7.857118	0.000000	0.000000	27.694052	-9.462185	-17.354513	4.659832	-2.651388	29.526617	43.347950	1.469066	-29.550189	10.108287	25.109514	-4.759155	68.277094	43.563515	85.993028	5.602598	14.479494
0.016949	-2.317180	-4.232445	89.363419	0.297363	0.791510	0.772632	4.320050	-0.315883	-0.360904	0.355713	0.006208	24.441760	0.736120	0.000000	5.944412	0.944586	13.159026	2.683854	0.046842	22.996476	-13.626288	0.000000	0.232135	-0.067403	1.271386	0.431097	-0.089646	1.350847	0.381374	-0.163884	1.350847	0.265307	-0.163884	1.112462	0.215560	-0.137448	1.033001	0.132642	-0.104407	0.953539	1.658114	-0.762476	7.071066	0.000000	0.000000	27.489745	-9.100572	-14.965849	4.905936	-3.712201	33.903116	42.569777	1.635216	-22.470935	9.004404	25.024414	-5.356427	72.165651	43.651290	85.130552	4.452312	12.715896
0.033898	-1.893244	-4.094627	89.361307	0.296976	0.791879	0.773298	4.429617	0.132526	0.179265	0.446409	0.007791	24.832463	0.225522	0.000000	5.854564	0.495177	13.590300	2.799215	0.048856	23.373764	-13.702058	0.000000	0.217039	0.008741	1.156443	0.403064	0.011625	1.228720	0.356574	0.021252	1.228720	0.248054	0.021252	1.011887	0.201543	0.017824	0.939610	0.124016	0.013539	0.867332	1.550291	0.098877	6.431787	0.000000	0.000000	27.332507	-8.907066	-13.180144	5.060839	-4.613438	37.685320	41.882762	1.750540	-16.527058	7.878470	24.891588	-5.783667	75.719995	43.557903	83.662790	3.310180	11.064525
0.050847	-1.534595	-3.974460	89.391944	0.296618	0.792088	0.773771	4.505272	0.501703	0.369208	0.551160	0.009620	25.205269	0.113004	0.000000	5.770369	0.116772	13.951875	2.907609	0.050747	23.698079	-13.734694	0.000000	0.207079	0.071642	1.065926	0.384566	0.095283	1.132547	0.340210	0.174189	1.132547	0.236670	0.174189	0.932686	0.192293	0.146092	0.866065	0.118325	0.110973	0.799445	1.479144	0.810424	5.928362	0.000000	0.000000	27.218307	-8.860309	-11.938518	5.132512	-5.360877	40.897353	41.274192	1.820236	-11.625719	6.750199	24.718589	-6.057916	78.955208	43.305263	81.673613	2.189163	9.527203
0.067797	-1.237885	-3.871689	89.450691	0.296291	0.792159	0.774066	4.551484	0.796657	0.249004	0.667253	0.011646	25.560420	0.351941	0.000000	5.692493	-0.194615	14.248563	3.007261	0.052487	23.973822	-13.728497	0.000000	0.201757	0.122135	0.997873	0.374683	0.162439	1.060240	0.331467	0.296958	1.060240	0.230588	0.296958	0.873139	0.187352	0.249057	0.810772	0.115284	0.189186	0.748405	1.441132	1.381611	5.549871	0.000000	0.000000	27.143118	-8.938945	-11.182088	5.128924	-5.960293	43.563338	40.731359	1.849503	-7.674078	5.639304	24.512967	-6.196212	81.886372	42.915279	79.246888	1.102223	8.105751
0.084746	-0.999770	-3.786062	89.532911	0.295997	0.792111	0.774200	4.572724	1.022395	-0.141272	0.791975	0.013823	25.898158	0.895710	0.000000	5.621601	-0.442972	14.485178	3.096396	0.054042	24.205396	-13.687770	0.000000	0.200579	0.161055	0.950320	0.372495	0.214203	1.009715	0.329531	0.391588	1.009715	0.229241	0.391588	0.831530	0.186257	0.328423	0.772135	0.114611	0.249474	0.712740	1.432713	1.821883	5.285394	0.000000	0.000000	27.102912	-9.121615	-10.851973	5.058048	-6.417464	45.707399	40.241552	1.843539	-4.579298	4.565500	24.282277	-6.215595	84.528566	42.409860	76.466487	0.062320	6.801993
0.101695	-0.816904	-3.717323	89.633966	0.295739	0.791964	0.774192	4.573460	1.183927	-0.761541	0.922612	0.016103	26.218725	1.697689	0.000000	5.558360	-0.632285	14.666531	3.173239	0.055383	24.397202	-13.616817	0.000000	0.203048	0.189237	0.921303	0.377080	0.251685	0.978884	0.333587	0.460111	0.978884	0.232063	0.460111	0.806140	0.188550	0.385892	0.748559	0.116021	0.293128	0.690977	1.450348	2.140687	5.124010	0.000000	0.000000	27.093658	-9.386963	-10.889292	4.927852	-6.738166	47.353659	39.792060	1.807544	-2.248540	3.548501	24.034069	-6.133107	86.896873	41.810913	73.416278	-0.917585	5.617750
0.118644	-0.685941	-3.665220	89.749218	0.295521	0.791738	0.774057	4.558163	1.286259	-1.571726	1.056452	0.018439	26.522363	2.711253	0.000000	5.503435	-0.766542	14.797436	3.236016	0.056479	24.553643	-13.519938	0.000000	0.208668	0.207517	0.908859	0.387518	0.275997	0.965663	0.342821	0.504556	0.965663	0.238487	0.504556	0.795251	0.193769	0.423168	0.738448	0.119233	0.321443	0.681644	1.490496	2.347469	5.054800	0.000000	0.000000	27.111329	-9.713632	-11.235162	4.746309	-6.928175	48.526242	39.370175	1.746715	-0.588966	2.608020	23.775896	-5.965786	89.006374	41.140347	70.180131	-1.824530	4.554844
0.135593	-0.603535	-3.629498	89.874029	0.295344	0.791455	0.773812	4.531302	1.334400	-2.531750	1.190781	0.020783	26.809312	3.889779	0.000000	5.457493	-0.849728	14.882703	3.282950	0.057298	24.679119	-13.401439	0.000000	0.216945	0.216728	0.911024	0.402888	0.288249	0.967963	0.356419	0.526953	0.967963	0.247946	0.526953	0.797146	0.201455	0.441953	0.740207	0.123962	0.335712	0.683268	1.549615	2.451675	5.066843	0.000000	0.000000	27.151897	-10.080263	-11.830702	4.521386	-6.993269	49.249272	38.963185	1.666251	0.492264	1.763771	23.515310	-5.730673	90.872150	40.420071	66.841916	-2.645556	3.615098
0.152542	-0.566342	-3.609903	90.003761	0.295211	0.791133	0.773475	4.497346	1.333359	-3.601535	1.322887	0.023089	27.079815	5.186645	0.000000	5.421199	-0.885832	14.927147	3.312269	0.057810	24.778034	-13.265620	0.000000	0.227382	0.217707	0.925836	0.422270	0.289551	0.983700	0.373565	0.529334	0.983700	0.259874	0.529334	0.810106	0.211147	0.443949	0.752241	0.129926	0.337229	0.694377	1.624164	2.462750	5.149220	0.000000	0.000000	27.211331	-10.465499	-12.617030	4.261057	-6.939223	49.546873	38.558381	1.571351	1.087987	1.035469	23.259864	-5.444807	92.509282	39.671993	63.485501	-3.367700	2.800335
0.169492	-0.571014	-3.606183	90.133777	0.295125	0.790793	0.773062	4.460766	1.288144	-4.741004	1.450057	0.025308	27.334113	6.555226	0.000000	5.395219	-0.878840	14.935579	3.322196	0.057983	24.854789	-13.116784	0.000000	0.239483	0.211289	0.951330	0.444744	0.281014	1.010788	0.393447	0.513728	1.010788	0.273705	0.513728	0.832413	0.222384	0.430860	0.772955	0.136841	0.327286	0.713497	1.710604	2.390142	5.291010	0.000000	0.000000	27.285605	-10.847984	-13.535266	3.973290	-6.771814	49.443167	38.143053	1.467213	1.291042	0.442826	23.017109	-5.125229	93.932851	38.918021	60.194758	-3.978003	2.112375
0.186441	-0.591743	-3.662054	90.238205	0.294993	0.790409	0.772465	4.474245	1.221764	-5.896332	1.559931	0.027226	27.568947	7.966751	0.000000	5.413280	-0.850797	14.970120	3.266780	0.057016	24.951440	-13.043717	0.000000	0.256876	0.203378	1.029495	0.477044	0.270493	1.093839	0.422021	0.494494	1.093839	0.293583	0.494494	0.900808	0.238535	0.414729	0.836465	0.146779	0.315033	0.772122	1.834838	2.300658	5.725744	0.000000	0.000000	27.370539	-11.397559	-14.675346	2.675258	-6.808361	57.216122	39.536924	-2.755909	1.663996	-0.196754	22.934896	-4.705028	95.843015	38.284895	56.858466	-4.879745	1.333611
0.203390	-0.681218	-3.713586	90.335566	0.295015	0.790128	0.771904	4.477427	1.092762	-7.020223	1.657770	0.028934	27.811075	9.313243	0.000000	5.430566	-0.758531	14.951762	3.183322	0.055559	25.029652	-12.935601	0.000000	0.272871	0.184439	1.088063	0.506749	0.245304	1.156066	0.448300	0.448444	1.156066	0.311864	0.448444	0.952055	0.253388	0.376108	0.884051	0.155918	0.285696	0.816047	1.949090	2.086408	6.051478	0.000000	0.000000	27.459568	-11.724145	-15.637433	1.900819	-6.490709	59.734172	39.779408	-4.707810	1.706539	-0.195466	22.827360	-4.360494	97.170459	37.657767	54.054479	-5.239481	0.882730
0.220339	-0.825342	-3.749347	90.426092	0.295160	0.789956	0.771344	4.457330	0.915015	-8.040090	1.740214	0.030372	28.048603	10.507634	0.000000	5.425622	-0.619564	14.878050	3.065740	0.053507	25.110457	-12.733397	0.000000	0.285196	0.157044	1.125076	0.529638	0.208869	1.195393	0.468549	0.381838	1.195393	0.325951	0.381838	0.984441	0.264833	0.320245	0.914124	0.162961	0.243262	0.843807	2.037129	1.776517	6.257334	0.000000	0.000000	27.553617	-11.827972	-16.358025	1.656866	-5.913406	57.878623	38.986288	-4.615455	1.623052	0.315696	22.666664	-4.111280	97.874228	37.078563	51.780338	-5.101007	0.748884
0.237288	-1.000508	-3.795930	90.504580	0.295389	0.789878	0.770840	4.451935	0.712527	-8.994340	1.813211	0.031647	28.259426	11.578304	0.000000	5.441677	-0.450208	14.758221	2.951661	0.051516	25.182616	-12.499680	0.000000	0.296777	0.124605	1.146565	0.551145	0.165724	1.218225	0.487575	0.302964	1.218225	0.339187	0.302964	1.003244	0.275587	0.254094	0.931584	0.169578	0.193013	0.859924	2.119850	1.409554	6.376850	0.000000	0.000000	27.647772	-11.710537	-16.840450	1.842206	-5.081949	52.180693	37.305498	-2.561951	1.475693	1.260761	22.516090	-3.931050	98.217922	36.551173	50.039981	-4.623147	0.852651
0.254237	-1.195868	-3.841057	90.564120	0.295693	0.789901	0.770414	4.451000	0.497494	-9.762390	1.874847	0.032722	28.440923	12.414881	0.000000	5.458301	-0.263640	14.646295	2.837533	0.049524	25.224312	-12.285174	0.000000	0.304776	0.089073	1.153350	0.565999	0.118467	1.225435	0.500716	0.216572	1.225435	0.348328	0.216572	1.009182	0.283015	0.181638	0.937097	0.174149	0.137974	0.865013	2.176984	1.007612	6.414589	0.000000	0.000000	27.729517	-11.451037	-17.125020	2.427862	-4.067069	43.076645	34.932194	1.037328	1.011456	2.167165	22.351733	-3.849830	98.188423	36.123724	48.926887	-4.018450	1.089641
